<svg xmlns="http://www.w3.org/2000/svg" width="254.25" height="78.46" viewBox="0 0 254.25 78.46"><path d="M57,37.22a1.27,1.27,0,0,1-1.55.94A1.3,1.3,0,1,1,57,37.21Z" transform="translate(-21.2 -20.77)" fill="#939598"/><path d="M59.42,31.68a1.29,1.29,0,1,1-.38-1.8,1.27,1.27,0,0,1,.38,1.8Z" transform="translate(-21.2 -20.77)" fill="#939598"/><path d="M63.48,27.23a1.28,1.28,0,0,1-1.8-.22,1.3,1.3,0,1,1,1.81.21Z" transform="translate(-21.2 -20.77)" fill="#939598"/><path d="M68.77,24.35a1.29,1.29,0,1,1,.82-1.65,1.28,1.28,0,0,1-.82,1.65Z" transform="translate(-21.2 -20.77)" fill="#939598"/><path d="M74.76,23.36a1.28,1.28,0,0,1-1.26-1.3,1.3,1.3,0,1,1,1.27,1.3Z" transform="translate(-21.2 -20.77)" fill="#939598"/><path d="M80.66,24.36a1.27,1.27,0,0,1-.79-1.63,1.3,1.3,0,1,1,2.45.84,1.28,1.28,0,0,1-1.65.8Z" transform="translate(-21.2 -20.77)" fill="#939598"/><path d="M85.94,27.26a1.29,1.29,0,0,1,1.62-2,1.3,1.3,0,0,1,.21,1.82,1.28,1.28,0,0,1-1.82.21Z" transform="translate(-21.2 -20.77)" fill="#939598"/><path d="M90,31.73A1.27,1.27,0,0,1,90.38,30a1.29,1.29,0,0,1,1.8.38,1.3,1.3,0,0,1-.39,1.79A1.28,1.28,0,0,1,90,31.74Z" transform="translate(-21.2 -20.77)" fill="#939598"/><path d="M92.36,37.28a1.26,1.26,0,0,1,1-1.54,1.29,1.29,0,0,1,1.57.95,1.3,1.3,0,0,1-1,1.56,1.28,1.28,0,0,1-1.56-1Z" transform="translate(-21.2 -20.77)" fill="#939598"/><path d="M46.26,77.3H39.71v-3h-.1a8.93,8.93,0,0,1-7.07,3.6C25.71,77.87,21.2,72.94,21.2,66c0-6.41,4-12.29,10.53-12.29,2.95,0,5.7.8,7.31,3h.1V41.42h7.12ZM34,59.93c-3.56,0-5.69,2.37-5.69,5.84s2.13,5.84,5.69,5.84,5.7-2.37,5.7-5.84S37.57,59.93,34,59.93Z" transform="translate(-21.2 -20.77)" fill="#034ea2"/><path d="M54.66,42a4.13,4.13,0,1,1-4.13,4.12A4.13,4.13,0,0,1,54.66,42Z" transform="translate(-21.2 -20.77)" fill="#f7941d"/><rect x="29.9" y="33.47" width="7.12" height="23.07" fill="#034ea2"/><path d="M86.6,75.36C86.6,84,82.19,88.7,73.26,88.7c-4.08,0-8.26-.72-11.58-3.38l3.94-5.88a11.34,11.34,0,0,0,7.5,3c4.32,0,6.36-2.37,6.36-5.65V74.55h-.09a8.08,8.08,0,0,1-6.51,3c-6.83,0-11.34-4.94-11.34-11.91,0-6.13,4-12,10.54-12,4,0,6.78,1.94,7.88,3.6h.09v-3H86.6Zm-12.25-4a5.7,5.7,0,1,0-5.69-5.69A5.74,5.74,0,0,0,74.35,71.32Z" transform="translate(-21.2 -20.77)" fill="#034ea2"/><path d="M95,42a4.13,4.13,0,1,1-4.13,4.12A4.13,4.13,0,0,1,95,42Z" transform="translate(-21.2 -20.77)" fill="#f7941d"/><rect x="70.24" y="33.47" width="7.12" height="23.07" fill="#034ea2"/><path d="M119.4,59.93h-6.27v7.69c0,2.47.29,4.27,3.37,4.27a5.13,5.13,0,0,0,2.9-.66v5.93a14.78,14.78,0,0,1-5,.71c-4.74,0-8.4-1.94-8.4-7v-11h-4.56V54.24H106V47.4h7.12v6.84h6.27Z" transform="translate(-21.2 -20.77)" fill="#034ea2"/><path d="M137.51,74.41h-.1c-1.56,2.47-4.41,3.46-7.31,3.46-4.32,0-8.21-2.47-8.21-7.12,0-8,9.68-8.11,15.62-8.11,0-2.52-2.09-4.13-4.56-4.13a7.61,7.61,0,0,0-5.79,2.75l-3.8-3.89a14.88,14.88,0,0,1,10.16-3.7c8.31,0,10.54,4.22,10.54,11.91V77.3h-6.55Zm-1.76-7.22c-2.18,0-7,.2-7,3.33,0,1.71,1.8,2.51,3.37,2.51,2.8,0,5.41-1.47,5.41-4.32V67.19Z" transform="translate(-21.2 -20.77)" fill="#034ea2"/><path d="M148.61,41.42h7.12V77.3h-7.12Z" transform="translate(-21.2 -20.77)" fill="#034ea2"/><path d="M189.64,59.93h-6.27v7.69c0,2.47.29,4.27,3.37,4.27a5.13,5.13,0,0,0,2.9-.66v5.93a14.73,14.73,0,0,1-5,.71c-4.75,0-8.41-1.94-8.41-7v-11H171.7V54.24h4.55V47.4h7.12v6.84h6.27Z" transform="translate(-21.2 -20.77)" fill="#034ea2"/><path d="M190.49,54.24h7.6l4.7,14.47h.09l3.94-14.47h7.78l4.28,14.47H219l4.32-14.47h7.21L222.29,77.3h-7L210.47,62h-.09L206.11,77.3h-7.17Z" transform="translate(-21.2 -20.77)" fill="#034ea2"/><path d="M236.44,42a4.13,4.13,0,1,1-4.13,4.12A4.13,4.13,0,0,1,236.44,42Z" transform="translate(-21.2 -20.77)" fill="#034ea2"/><rect x="211.68" y="33.47" width="7.12" height="23.07" fill="#034ea2"/><path d="M244.17,54.24H251v3.13h.09a7.49,7.49,0,0,1,6.74-3.7c7.22,0,8.55,4.74,8.55,10.91V77.3h-7.12V66c0-2.66,0-6.08-3.71-6.08s-4.27,2.9-4.27,5.89V77.3h-7.12Z" transform="translate(-21.2 -20.77)" fill="#034ea2"/><path d="M104.7,91.35a2.72,2.72,0,0,0-2.1-1,3.38,3.38,0,0,0-3.42,3.56,3.42,3.42,0,0,0,3.42,3.7,2.82,2.82,0,0,0,2.24-1.21l1.46,1a4.42,4.42,0,0,1-3.71,1.77,5.24,5.24,0,1,1,0-10.47,4.34,4.34,0,0,1,3.49,1.58Z" transform="translate(-21.2 -20.77)" fill="#939598"/><path d="M119.52,88.76a5,5,0,0,1,5.3,5.22,5.08,5.08,0,0,1-5.3,5.25,5.24,5.24,0,1,1,0-10.47Zm0,8.87a3.43,3.43,0,0,0,3.44-3.7,3.43,3.43,0,1,0-6.86,0A3.42,3.42,0,0,0,119.53,97.63Z" transform="translate(-21.2 -20.77)" fill="#939598"/><path d="M133.81,89h2.34l4.83,7.4,0,0h0l0,0V89h1.77V99h-2.25l-4.92-7.64h0V99h-1.77Z" transform="translate(-21.2 -20.77)" fill="#939598"/><path d="M157.18,91.15a2.11,2.11,0,0,0-1.74-.78c-.82,0-1.64.36-1.64,1.28,0,2,4.73.85,4.73,4.4,0,2.14-1.69,3.18-3.64,3.18a4.15,4.15,0,0,1-3.27-1.35l1.34-1.3a2.34,2.34,0,0,0,2,1c.82,0,1.74-.45,1.74-1.37,0-2.18-4.72-.93-4.72-4.49,0-2,1.82-3,3.67-3a4.08,4.08,0,0,1,2.85,1Z" transform="translate(-21.2 -20.77)" fill="#939598"/><path d="M172.4,88.76A5,5,0,0,1,177.7,94a5.08,5.08,0,0,1-5.3,5.25,5.24,5.24,0,1,1,0-10.47Zm0,8.87a3.42,3.42,0,0,0,3.43-3.7,3.43,3.43,0,1,0-6.85,0A3.42,3.42,0,0,0,172.41,97.63Z" transform="translate(-21.2 -20.77)" fill="#939598"/><path d="M186.68,89h3.46c1.92,0,3.72.62,3.72,2.85a2.55,2.55,0,0,1-2.31,2.7L194.19,99h-2.13l-2.31-4.22h-1.29V99h-1.78Zm3.15,4.22c1,0,2.17-.09,2.17-1.38s-1.1-1.32-2-1.32h-1.53v2.7Z" transform="translate(-21.2 -20.77)" fill="#939598"/><path d="M204.63,90.62h-3V89h7.87v1.6h-3V99h-1.77Z" transform="translate(-21.2 -20.77)" fill="#939598"/><path d="M217.92,89h1.77V99h-1.77Z" transform="translate(-21.2 -20.77)" fill="#939598"/><path d="M237.14,95.32a4,4,0,0,1-8,0V89h1.77v6.24a2.24,2.24,0,1,0,4.47,0V89h1.77Z" transform="translate(-21.2 -20.77)" fill="#939598"/><path d="M246.66,89h2.7L252,96l2.69-7h2.67V99h-1.69V90.7h0l-3,8.28H251.4l-3-8.28h0V99h-1.69Z" transform="translate(-21.2 -20.77)" fill="#939598"/><path d="M275.44,74a3.05,3.05,0,0,1-3.12,3.08,3.06,3.06,0,1,1,0-6.12A3,3,0,0,1,275.44,74ZM270,74a2.36,2.36,0,0,0,2.38,2.43A2.32,2.32,0,0,0,274.66,74a2.35,2.35,0,1,0-4.7,0Zm1.88,1.6h-.71v-3a6.76,6.76,0,0,1,1.17-.09,1.89,1.89,0,0,1,1.06.22.84.84,0,0,1,.3.67A.78.78,0,0,1,273,74v0a.93.93,0,0,1,.56.75,2.15,2.15,0,0,0,.22.76h-.76a2.32,2.32,0,0,1-.24-.74c-.06-.34-.25-.49-.64-.49h-.33Zm0-1.73h.33c.39,0,.71-.13.71-.44s-.21-.47-.65-.47a1.52,1.52,0,0,0-.39,0Z" transform="translate(-21.2 -20.77)" fill="#034ea2"/></svg>